<mxfile host="app.diagrams.net" modified="2024-03-12T03:39:02.224Z" agent="Mozilla/5.0 (Macintosh; Intel Mac OS X 10_15_7) AppleWebKit/537.36 (KHTML, like Gecko) Chrome/122.0.0.0 Safari/537.36" etag="Ba_KmfXKabUwcIn_iRlP" version="24.0.5" type="github">
  <diagram name="第 1 页" id="2tMNXyeNniKinCIlr4IS">
    <mxGraphModel dx="867" dy="505" grid="1" gridSize="10" guides="1" tooltips="1" connect="1" arrows="1" fold="1" page="1" pageScale="1" pageWidth="1169" pageHeight="1654" math="0" shadow="0">
      <root>
        <mxCell id="0" />
        <mxCell id="1" parent="0" />
        <mxCell id="zGtEDN8OLJXr4s6591F3-1" value="CMDB底座" style="rounded=0;whiteSpace=wrap;html=1;" vertex="1" parent="1">
          <mxGeometry x="110" y="410" width="710" height="60" as="geometry" />
        </mxCell>
        <mxCell id="zGtEDN8OLJXr4s6591F3-2" value="低代码" style="rounded=0;whiteSpace=wrap;html=1;" vertex="1" parent="1">
          <mxGeometry x="110" y="360" width="80" height="40" as="geometry" />
        </mxCell>
        <mxCell id="zGtEDN8OLJXr4s6591F3-3" value="工作流引擎" style="rounded=0;whiteSpace=wrap;html=1;" vertex="1" parent="1">
          <mxGeometry x="200" y="360" width="80" height="40" as="geometry" />
        </mxCell>
        <mxCell id="zGtEDN8OLJXr4s6591F3-4" value="资源发现和采集" style="rounded=0;whiteSpace=wrap;html=1;" vertex="1" parent="1">
          <mxGeometry x="290" y="360" width="90" height="40" as="geometry" />
        </mxCell>
        <mxCell id="zGtEDN8OLJXr4s6591F3-7" style="edgeStyle=orthogonalEdgeStyle;rounded=0;orthogonalLoop=1;jettySize=auto;html=1;exitX=1;exitY=0.5;exitDx=0;exitDy=0;" edge="1" parent="1" source="zGtEDN8OLJXr4s6591F3-5">
          <mxGeometry relative="1" as="geometry">
            <mxPoint x="490" y="380" as="targetPoint" />
          </mxGeometry>
        </mxCell>
        <mxCell id="zGtEDN8OLJXr4s6591F3-5" value="数据库与全文索引" style="rounded=0;whiteSpace=wrap;html=1;" vertex="1" parent="1">
          <mxGeometry x="390" y="360" width="100" height="40" as="geometry" />
        </mxCell>
        <mxCell id="zGtEDN8OLJXr4s6591F3-6" value="周期性任务" style="rounded=0;whiteSpace=wrap;html=1;" vertex="1" parent="1">
          <mxGeometry x="500" y="360" width="70" height="40" as="geometry" />
        </mxCell>
        <mxCell id="zGtEDN8OLJXr4s6591F3-9" value="巡检与管理任务" style="rounded=0;whiteSpace=wrap;html=1;" vertex="1" parent="1">
          <mxGeometry x="580" y="360" width="90" height="40" as="geometry" />
        </mxCell>
        <mxCell id="zGtEDN8OLJXr4s6591F3-10" value="数据监控" style="rounded=0;whiteSpace=wrap;html=1;" vertex="1" parent="1">
          <mxGeometry x="680" y="360" width="60" height="40" as="geometry" />
        </mxCell>
        <mxCell id="zGtEDN8OLJXr4s6591F3-11" value="合规性检查" style="rounded=0;whiteSpace=wrap;html=1;" vertex="1" parent="1">
          <mxGeometry x="750" y="360" width="70" height="40" as="geometry" />
        </mxCell>
      </root>
    </mxGraphModel>
  </diagram>
</mxfile>
